<svg width="121" height="33" viewBox="0 0 121 33" fill="none" xmlns="http://www.w3.org/2000/svg">
<path fill-rule="evenodd" clip-rule="evenodd" d="M18.4541 14.7055C18.4541 15.9884 17.4141 17.0283 16.1313 17.0283C14.8485 17.0283 13.8086 15.9884 13.8086 14.7055C13.8086 13.4227 14.8485 12.3828 16.1313 12.3828C17.4141 12.3828 18.4541 13.4227 18.4541 14.7055ZM12.8119 19.835C12.6314 18.3467 14.3487 17.6019 16.0817 17.6017C17.8149 17.6012 19.564 18.3454 19.4483 19.835L19.0059 23.07C18.928 23.6392 18.5433 24.5495 17.9688 24.5495H17.9279L17.4574 30.1971C17.437 30.4411 17.2601 30.6395 17.015 30.6395H15.2453C15.0002 30.6395 14.8232 30.4411 14.8028 30.1971L14.3323 24.5495H14.2914C13.7167 24.5495 13.3322 23.6394 13.2543 23.07L12.8119 19.835Z" fill="#76DD87"/>
<path d="M4.54436 12.7109V30.3744H27.9958V12.7109L16.2701 2.941L4.54436 12.7109ZM2.62134 11.2616L15.5196 0.513784C15.7303 0.33829 15.9958 0.242188 16.2701 0.242188C16.5443 0.242188 16.8098 0.33829 17.0205 0.513784L29.9188 11.2616C30.0508 11.3715 30.1571 11.5092 30.23 11.6649C30.303 11.8205 30.3408 11.9902 30.3409 12.1621V31.547C30.3409 31.858 30.2174 32.1562 29.9975 32.3761C29.7776 32.596 29.4793 32.7196 29.1683 32.7196H3.37179C3.0608 32.7196 2.76256 32.596 2.54266 32.3761C2.32276 32.1562 2.19922 31.858 2.19922 31.547V12.1621C2.19928 11.9902 2.23713 11.8205 2.31007 11.6649C2.38302 11.5092 2.48929 11.3715 2.62134 11.2616Z" fill="white"/>
<path d="M46.7767 19.1822H46.8371L48.6899 14.0521L50.724 9.06335H53.2012V9.4067L47.2802 23.3227H46.3135L40.332 9.4067V9.06335H42.8293L44.8433 13.9511L46.7767 19.1822Z" fill="white"/>
<path d="M66.4116 23.2015H64.0553V16.8999H57.6106V23.2015H55.2745V9.06335H57.6106V14.7388H64.0553V9.06335H66.4116V23.2015Z" fill="white"/>
<path d="M83.4408 16.1324C83.4408 18.2868 82.7695 20.044 81.4269 21.4039C80.0843 22.7639 78.3523 23.4439 76.2309 23.4439C74.2169 23.4439 72.5185 22.7841 71.1356 21.4645C69.7661 20.1315 69.0814 18.3541 69.0814 16.1324C69.0814 13.9107 69.7795 12.1401 71.1759 10.8205C72.5722 9.48749 74.2706 8.82098 76.2712 8.82098C78.2717 8.82098 79.9634 9.48749 81.3463 10.8205C82.7427 12.1401 83.4408 13.9107 83.4408 16.1324ZM72.8273 12.3959C71.9143 13.2981 71.4578 14.5436 71.4578 16.1324C71.4578 17.7213 71.9143 18.9668 72.8273 19.8689C73.7403 20.7711 74.8883 21.2222 76.2712 21.2222C77.6541 21.2222 78.802 20.7711 79.715 19.8689C80.6414 18.9668 81.1047 17.7213 81.1047 16.1324C81.1047 14.5705 80.6414 13.3317 79.715 12.4161C78.802 11.487 77.6608 11.0225 76.2913 11.0225C74.9084 11.0225 73.7537 11.4803 72.8273 12.3959Z" fill="white"/>
<path d="M85.2672 19.1822H87.5631C87.59 19.6804 87.778 20.1046 88.1271 20.4547C88.4896 20.7913 88.9058 21.0269 89.3757 21.1616C89.8591 21.2962 90.376 21.3636 90.9264 21.3636C91.826 21.3636 92.5913 21.1952 93.2224 20.8586C93.8668 20.522 94.1891 19.9565 94.1891 19.162C94.1891 18.812 94.1085 18.509 93.9474 18.2532C93.7997 17.9839 93.6251 17.7819 93.4238 17.6472C93.2358 17.4991 92.9538 17.3779 92.5779 17.2837C92.202 17.176 91.8932 17.1086 91.6515 17.0817C91.4232 17.0413 91.0876 17.0009 90.6445 16.9605C87.2208 16.6643 85.5089 15.3717 85.5089 13.0826C85.5089 11.7092 86.0191 10.6522 87.0395 9.91164C88.0733 9.17107 89.3287 8.80078 90.8056 8.80078C92.2691 8.80078 93.5043 9.14414 94.5113 9.83085C95.5317 10.5176 96.0553 11.5409 96.0822 12.9009H93.8668C93.84 12.4296 93.6587 12.0391 93.323 11.7294C92.9874 11.4062 92.6047 11.1908 92.1751 11.0831C91.7589 10.9619 91.2957 10.9013 90.7855 10.9013C90.0202 10.9013 89.3354 11.0764 88.7312 11.4264C88.1271 11.7631 87.825 12.2949 87.825 13.022C87.825 13.3317 87.8921 13.601 88.0264 13.8299C88.1606 14.0588 88.3083 14.2339 88.4694 14.3551C88.6305 14.4762 88.8789 14.5907 89.2146 14.6984C89.5637 14.7927 89.8456 14.86 90.0605 14.9004C90.2753 14.9408 90.6042 14.9879 91.0473 15.0418C91.7186 15.1226 92.2825 15.2034 92.739 15.2841C93.1955 15.3649 93.6789 15.5063 94.1891 15.7083C94.7127 15.8968 95.1289 16.1324 95.4377 16.4152C95.7465 16.698 96.0016 17.075 96.203 17.5462C96.4178 18.0041 96.5252 18.5494 96.5252 19.1822C96.5252 19.9228 96.3574 20.5826 96.0217 21.1616C95.6995 21.7271 95.2632 22.1714 94.7127 22.4946C94.1756 22.8178 93.5916 23.0601 92.9605 23.2217C92.3295 23.3833 91.6649 23.4641 90.9667 23.4641C90.0135 23.491 89.1139 23.3564 88.268 23.0601C87.4356 22.7639 86.7307 22.2792 86.1534 21.6059C85.576 20.9327 85.2807 20.1248 85.2672 19.1822Z" fill="white"/>
<path d="M101.773 11.1437H97.6848V9.06335H108.157V11.1437H104.069V23.2015H101.773V11.1437Z" fill="white"/>
<path d="M114.836 15.4659H114.917L116.669 12.1132L118.501 9.06335H120.999V9.4067L116.044 17.4655V23.2015H113.708V17.4655L108.734 9.4067V9.06335H111.251L113.144 12.2141L114.836 15.4659Z" fill="white"/>
</svg>
