<svg width="181" height="50" viewBox="0 0 181 50" fill="none" xmlns="http://www.w3.org/2000/svg">
<path fill-rule="evenodd" clip-rule="evenodd" d="M25.0643 22.281C25.0643 24.2247 23.4829 25.8003 21.5322 25.8003C19.5814 25.8003 18 24.2247 18 22.281C18 20.3374 19.5814 18.7617 21.5322 18.7617C23.4829 18.7617 25.0643 20.3374 25.0643 22.281ZM16.4847 30.0519C16.2102 27.7968 18.8217 26.6683 21.457 26.668C24.0927 26.6673 26.7526 27.7948 26.5767 30.0519L25.9039 34.9534C25.7854 35.8158 25.2005 37.195 24.3268 37.195H24.2646L23.5491 45.752C23.5181 46.1216 23.249 46.4223 22.8763 46.4223H20.1851C19.8124 46.4223 19.5433 46.1216 19.5123 45.752L18.7968 37.195H18.7346C17.8606 37.195 17.276 35.8161 17.1575 34.9534L16.4847 30.0519Z" fill="#76DD87"/>
<path d="M3.91194 19.2591V46.0221H39.5743V19.2591L21.7431 4.4563L3.91194 19.2591ZM0.987626 17.0632L20.6019 0.778697C20.9223 0.512797 21.3261 0.367188 21.7431 0.367188C22.1601 0.367188 22.5639 0.512797 22.8843 0.778697L42.4986 17.0632C42.6994 17.2299 42.861 17.4385 42.9719 17.6743C43.0829 17.91 43.1404 18.1672 43.1405 18.4276V47.7987C43.1405 48.2699 42.9527 48.7218 42.6183 49.055C42.2839 49.3882 41.8303 49.5754 41.3574 49.5754H2.12882C1.65591 49.5754 1.20237 49.3882 0.867966 49.055C0.533567 48.7218 0.345703 48.2699 0.345703 47.7987V18.4276C0.345801 18.1672 0.403352 17.91 0.514281 17.6743C0.62521 17.4385 0.786805 17.2299 0.987626 17.0632Z" fill="#253021"/>
<path d="M68.1304 29.0578H68.2223L71.0399 21.2849L74.1331 13.7262H77.9001V14.2464L68.8961 35.3313H67.426L58.3301 14.2464V13.7262H62.1277L65.1903 21.1319L68.1304 29.0578Z" fill="#253021"/>
<path d="M97.9891 35.1477H94.4058V25.5998H84.6055V35.1477H81.0529V13.7262H84.6055V22.3254H94.4058V13.7262H97.9891V35.1477Z" fill="#253021"/>
<path d="M123.885 24.4369C123.885 27.7012 122.864 30.3635 120.823 32.4241C118.781 34.4846 116.147 35.5149 112.921 35.5149C109.859 35.5149 107.276 34.5152 105.173 32.5159C103.09 30.4961 102.049 27.8032 102.049 24.4369C102.049 21.0707 103.111 18.3879 105.234 16.3886C107.357 14.3688 109.94 13.359 112.982 13.359C116.025 13.359 118.597 14.3688 120.7 16.3886C122.824 18.3879 123.885 21.0707 123.885 24.4369ZM107.745 18.7755C106.357 20.1424 105.663 22.0296 105.663 24.4369C105.663 26.8443 106.357 28.7314 107.745 30.0983C109.134 31.4652 110.879 32.1487 112.982 32.1487C115.085 32.1487 116.831 31.4652 118.219 30.0983C119.628 28.7314 120.333 26.8443 120.333 24.4369C120.333 22.0704 119.628 20.1934 118.219 18.8061C116.831 17.3984 115.096 16.6946 113.013 16.6946C110.91 16.6946 109.154 17.3882 107.745 18.7755Z" fill="#253021"/>
<path d="M126.663 29.0578H130.154C130.195 29.8127 130.481 30.4553 131.012 30.9858C131.563 31.4958 132.196 31.8528 132.91 32.0569C133.645 32.2609 134.431 32.3629 135.269 32.3629C136.637 32.3629 137.8 32.1079 138.76 31.5978C139.74 31.0878 140.23 30.2309 140.23 29.0272C140.23 28.4968 140.108 28.0378 139.863 27.6501C139.638 27.2421 139.372 26.9361 139.066 26.7321C138.78 26.5077 138.352 26.3241 137.78 26.1812C137.208 26.018 136.739 25.916 136.371 25.8752C136.024 25.814 135.514 25.7528 134.84 25.6916C129.633 25.2428 127.03 23.2843 127.03 19.816C127.03 17.7351 127.806 16.1336 129.358 15.0115C130.93 13.8894 132.839 13.3284 135.085 13.3284C137.31 13.3284 139.189 13.8486 140.72 14.8891C142.272 15.9295 143.068 17.4801 143.109 19.5406H139.74C139.699 18.8265 139.424 18.2349 138.913 17.7657C138.403 17.276 137.821 16.9496 137.167 16.7864C136.534 16.6028 135.83 16.511 135.054 16.511C133.89 16.511 132.849 16.7762 131.93 17.3066C131.012 17.8167 130.552 18.6225 130.552 19.7242C130.552 20.1934 130.654 20.6015 130.858 20.9483C131.063 21.2951 131.287 21.5603 131.532 21.7439C131.777 21.9276 132.155 22.101 132.665 22.2642C133.196 22.407 133.625 22.509 133.952 22.5702C134.278 22.6314 134.779 22.7028 135.452 22.7844C136.473 22.9068 137.331 23.0292 138.025 23.1516C138.719 23.2741 139.454 23.4883 140.23 23.7943C141.026 24.0799 141.659 24.4369 142.129 24.8654C142.598 25.2938 142.986 25.865 143.293 26.5791C143.619 27.2727 143.783 28.099 143.783 29.0578C143.783 30.1799 143.527 31.1796 143.017 32.0569C142.527 32.9137 141.863 33.587 141.026 34.0766C140.21 34.5662 139.321 34.9334 138.362 35.1783C137.402 35.4231 136.392 35.5455 135.33 35.5455C133.88 35.5863 132.512 35.3823 131.226 34.9334C129.96 34.4846 128.888 33.7502 128.01 32.7301C127.132 31.71 126.683 30.4859 126.663 29.0578Z" fill="#253021"/>
<path d="M151.763 16.8782H145.546V13.7262H161.472V16.8782H155.254V35.1477H151.763V16.8782Z" fill="#253021"/>
<path d="M171.628 23.4271H171.75L174.415 18.3471L177.202 13.7262H180.999V14.2464L173.465 26.4567V35.1477H169.913V26.4567L162.348 14.2464V13.7262H166.176L169.055 18.5001L171.628 23.4271Z" fill="#253021"/>
</svg>
