<svg width="162" height="38" viewBox="0 0 162 38" fill="none" xmlns="http://www.w3.org/2000/svg">
<path d="M17.0155 23.1612C17.0155 24.0414 16.8474 24.8672 16.5111 25.6386C16.1749 26.41 15.715 27.0874 15.1315 27.6709C14.5579 28.2445 13.8854 28.6995 13.114 29.0357C12.3425 29.372 11.5167 29.5401 10.6365 29.5401H0V8.26703H10.6365C11.5167 8.26703 12.3425 8.43515 13.114 8.77141C13.8854 9.10766 14.5579 9.56754 15.1315 10.151C15.715 10.7247 16.1749 11.3972 16.5111 12.1686C16.8474 12.94 17.0155 13.7658 17.0155 14.646C17.0155 15.0416 16.9611 15.4471 16.8523 15.8624C16.7435 16.2778 16.5902 16.6784 16.3924 17.0641C16.1947 17.4498 15.9573 17.8009 15.6804 18.1173C15.4035 18.4338 15.0969 18.6959 14.7606 18.9036C15.1068 19.0915 15.4183 19.3486 15.6952 19.675C15.9721 19.9915 16.2095 20.3425 16.4073 20.7283C16.6051 21.114 16.7534 21.5194 16.8523 21.9447C16.9611 22.3601 17.0155 22.7656 17.0155 23.1612ZM4.25759 25.2825H10.6365C10.9332 25.2825 11.2102 25.2281 11.4673 25.1194C11.7244 25.0106 11.947 24.8622 12.1349 24.6743C12.3327 24.4765 12.486 24.249 12.5947 23.9919C12.7035 23.7348 12.7579 23.4579 12.7579 23.1612C12.7579 22.8645 12.7035 22.5875 12.5947 22.3304C12.486 22.0733 12.3327 21.8508 12.1349 21.6628C11.947 21.465 11.7244 21.3118 11.4673 21.203C11.2102 21.0942 10.9332 21.0398 10.6365 21.0398H4.25759V25.2825ZM4.25759 16.7822H10.6365C10.9332 16.7822 11.2102 16.7278 11.4673 16.619C11.7244 16.5102 11.947 16.3619 12.1349 16.174C12.3327 15.9762 12.486 15.7487 12.5947 15.4916C12.7035 15.2245 12.7579 14.9427 12.7579 14.646C12.7579 14.3493 12.7035 14.0724 12.5947 13.8152C12.486 13.5581 12.3327 13.3356 12.1349 13.1477C11.947 12.9499 11.7244 12.7966 11.4673 12.6878C11.2102 12.579 10.9332 12.5246 10.6365 12.5246H4.25759V16.7822Z" fill="#116E67"/>
<path d="M41.0775 18.9926C41.0775 20.0013 40.944 20.9755 40.677 21.915C40.4199 22.8447 40.0539 23.7199 39.5792 24.5408C39.1045 25.3518 38.5309 26.0935 37.8584 26.766C37.1859 27.4385 36.4441 28.0171 35.6332 28.5017C34.8222 28.9764 33.947 29.3423 33.0074 29.5995C32.0679 29.8665 31.0937 30 30.085 30C29.0762 30 28.102 29.8665 27.1625 29.5995C26.2329 29.3423 25.3576 28.9764 24.5367 28.5017C23.7258 28.0171 22.984 27.4385 22.3115 26.766C21.639 26.0935 21.0605 25.3518 20.5759 24.5408C20.1011 23.7199 19.7303 22.8447 19.4633 21.915C19.2061 20.9755 19.0775 20.0013 19.0775 18.9926C19.0775 17.9838 19.2061 17.0097 19.4633 16.0701C19.7303 15.1306 20.1011 14.2553 20.5759 13.4444C21.0605 12.6334 21.639 11.8917 22.3115 11.2192C22.984 10.5466 23.7258 9.97303 24.5367 9.49831C25.3576 9.0236 26.2329 8.65768 27.1625 8.40054C28.102 8.13351 29.0762 8 30.085 8C31.0937 8 32.0679 8.13351 33.0074 8.40054C33.947 8.65768 34.8222 9.0236 35.6332 9.49831C36.4441 9.97303 37.1859 10.5466 37.8584 11.2192C38.5309 11.8917 39.1045 12.6334 39.5792 13.4444C40.0539 14.2553 40.4199 15.1306 40.677 16.0701C40.944 17.0097 41.0775 17.9838 41.0775 18.9926ZM36.8496 18.9926C36.8496 18.0629 36.6716 17.1877 36.3156 16.3668C35.9595 15.5361 35.4749 14.8191 34.8618 14.2158C34.2585 13.6026 33.5415 13.118 32.7107 12.762C31.8899 12.4059 31.0146 12.2279 30.085 12.2279C29.1454 12.2279 28.2652 12.4059 27.4444 12.762C26.6235 13.118 25.9065 13.6026 25.2933 14.2158C24.6802 14.8191 24.1956 15.5361 23.8395 16.3668C23.4835 17.1877 23.3055 18.0629 23.3055 18.9926C23.3055 19.9222 23.4835 20.7975 23.8395 21.6183C24.1956 22.4293 24.6802 23.1414 25.2933 23.7546C25.9065 24.3677 26.6235 24.8523 27.4444 25.2084C28.2652 25.5644 29.1454 25.7424 30.085 25.7424C31.0146 25.7424 31.8899 25.5644 32.7107 25.2084C33.5415 24.8523 34.2585 24.3677 34.8618 23.7546C35.4749 23.1414 35.9595 22.4293 36.3156 21.6183C36.6716 20.7975 36.8496 19.9222 36.8496 18.9926Z" fill="#116E67"/>
<path d="M64.7242 18.9926C64.7242 20.0013 64.5907 20.9755 64.3237 21.915C64.0665 22.8447 63.7006 23.7199 63.2259 24.5408C62.7512 25.3518 62.1776 26.0935 61.5051 26.766C60.8325 27.4385 60.0908 28.0171 59.2798 28.5017C58.4689 28.9764 57.5936 29.3423 56.6541 29.5995C55.7145 29.8665 54.7404 30 53.7316 30C52.7229 30 51.7487 29.8665 50.8092 29.5995C49.8795 29.3423 49.0043 28.9764 48.1834 28.5017C47.3724 28.0171 46.6307 27.4385 45.9582 26.766C45.2857 26.0935 44.7071 25.3518 44.2225 24.5408C43.7478 23.7199 43.3769 22.8447 43.1099 21.915C42.8528 20.9755 42.7242 20.0013 42.7242 18.9926C42.7242 17.9838 42.8528 17.0097 43.1099 16.0701C43.3769 15.1306 43.7478 14.2553 44.2225 13.4444C44.7071 12.6334 45.2857 11.8917 45.9582 11.2192C46.6307 10.5466 47.3724 9.97303 48.1834 9.49831C49.0043 9.0236 49.8795 8.65768 50.8092 8.40054C51.7487 8.13351 52.7229 8 53.7316 8C54.7404 8 55.7145 8.13351 56.6541 8.40054C57.5936 8.65768 58.4689 9.0236 59.2798 9.49831C60.0908 9.97303 60.8325 10.5466 61.5051 11.2192C62.1776 11.8917 62.7512 12.6334 63.2259 13.4444C63.7006 14.2553 64.0665 15.1306 64.3237 16.0701C64.5907 17.0097 64.7242 17.9838 64.7242 18.9926ZM60.4963 18.9926C60.4963 18.0629 60.3183 17.1877 59.9622 16.3668C59.6062 15.5361 59.1216 14.8191 58.5084 14.2158C57.9052 13.6026 57.1881 13.118 56.3574 12.762C55.5365 12.4059 54.6613 12.2279 53.7316 12.2279C52.7921 12.2279 51.9119 12.4059 51.091 12.762C50.2702 13.118 49.5532 13.6026 48.94 14.2158C48.3268 14.8191 47.8422 15.5361 47.4862 16.3668C47.1301 17.1877 46.9521 18.0629 46.9521 18.9926C46.9521 19.9222 47.1301 20.7975 47.4862 21.6183C47.8422 22.4293 48.3268 23.1414 48.94 23.7546C49.5532 24.3677 50.2702 24.8523 51.091 25.2084C51.9119 25.5644 52.7921 25.7424 53.7316 25.7424C54.6613 25.7424 55.5365 25.5644 56.3574 25.2084C57.1881 24.8523 57.9052 24.3677 58.5084 23.7546C59.1216 23.1414 59.6062 22.4293 59.9622 21.6183C60.3183 20.7975 60.4963 19.9222 60.4963 18.9926Z" fill="#116E67"/>
<path d="M71.7856 29.5401H67.528V8.26703H71.7856V18.9036L79.7074 8.26703H84.5435L77.8233 17.2421L84.5435 29.5401H79.7074L75.0344 20.9359L71.7856 25.2825V29.5401Z" fill="#116E67"/>
<path d="M106.647 18.9926C106.647 20.0013 106.514 20.9755 106.247 21.915C105.99 22.8447 105.624 23.7199 105.149 24.5408C104.674 25.3518 104.101 26.0935 103.428 26.766C102.756 27.4385 102.014 28.0171 101.203 28.5017C100.392 28.9764 99.5168 29.3423 98.5772 29.5995C97.6377 29.8665 96.6635 30 95.6548 30C94.646 30 93.6718 29.8665 92.7323 29.5995C91.8027 29.3423 90.9274 28.9764 90.1065 28.5017C89.2956 28.0171 88.5538 27.4385 87.8813 26.766C87.2088 26.0935 86.6303 25.3518 86.1457 24.5408C85.6709 23.7199 85.3001 22.8447 85.0331 21.915C84.7759 20.9755 84.6473 20.0013 84.6473 18.9926C84.6473 17.9838 84.7759 17.0097 85.0331 16.0701C85.3001 15.1306 85.6709 14.2553 86.1457 13.4444C86.6303 12.6334 87.2088 11.8917 87.8813 11.2192C88.5538 10.5466 89.2956 9.97303 90.1065 9.49831C90.9274 9.0236 91.8027 8.65768 92.7323 8.40054C93.6718 8.13351 94.646 8 95.6548 8C96.6635 8 97.6377 8.13351 98.5772 8.40054C99.5168 8.65768 100.392 9.0236 101.203 9.49831C102.014 9.97303 102.756 10.5466 103.428 11.2192C104.101 11.8917 104.674 12.6334 105.149 13.4444C105.624 14.2553 105.99 15.1306 106.247 16.0701C106.514 17.0097 106.647 17.9838 106.647 18.9926ZM102.419 18.9926C102.419 18.0629 102.241 17.1877 101.885 16.3668C101.529 15.5361 101.045 14.8191 100.432 14.2158C99.8283 13.6026 99.1113 13.118 98.2805 12.762C97.4597 12.4059 96.5844 12.2279 95.6548 12.2279C94.7152 12.2279 93.835 12.4059 93.0142 12.762C92.1933 13.118 91.4763 13.6026 90.8631 14.2158C90.25 14.8191 89.7653 15.5361 89.4093 16.3668C89.0533 17.1877 88.8753 18.0629 88.8753 18.9926C88.8753 19.9222 89.0533 20.7975 89.4093 21.6183C89.7653 22.4293 90.25 23.1414 90.8631 23.7546C91.4763 24.3677 92.1933 24.8523 93.0142 25.2084C93.835 25.5644 94.7152 25.7424 95.6548 25.7424C96.5844 25.7424 97.4597 25.5644 98.2805 25.2084C99.1113 24.8523 99.8283 24.3677 100.432 23.7546C101.045 23.1414 101.529 22.4293 101.885 21.6183C102.241 20.7975 102.419 19.9222 102.419 18.9926Z" fill="#116E67"/>
<path d="M125.324 8.26703L118.337 29.5401H114.08L107.122 8.26703H111.958L116.201 22.4639L120.459 8.26703H125.324Z" fill="#116E67"/>
<path d="M141.954 29.5401H127.372V8.26703H141.954V12.5246H131.629V16.7822H138.616V21.0398H131.629V25.2825H141.954V29.5401Z" fill="#116E67"/>
<path d="M149.194 12.5246V21.0398H153.451C154.035 21.0398 154.584 20.931 155.098 20.7134C155.612 20.486 156.062 20.1794 156.448 19.7937C156.833 19.408 157.135 18.958 157.353 18.4437C157.58 17.9195 157.694 17.3657 157.694 16.7822C157.694 16.1987 157.58 15.6498 157.353 15.1355C157.135 14.6114 156.833 14.1564 156.448 13.7707C156.062 13.385 155.612 13.0834 155.098 12.8658C154.584 12.6383 154.035 12.5246 153.451 12.5246H149.194ZM149.194 29.5401H144.936V8.26703H153.451C154.232 8.26703 154.984 8.37087 155.706 8.57856C156.428 8.77635 157.1 9.06316 157.724 9.43898C158.356 9.8049 158.93 10.2499 159.444 10.7741C159.969 11.2884 160.414 11.862 160.78 12.4949C161.155 13.1279 161.442 13.8053 161.64 14.5273C161.848 15.2493 161.951 16.0009 161.951 16.7822C161.951 17.514 161.857 18.2261 161.67 18.9184C161.492 19.6107 161.229 20.2684 160.883 20.8914C160.547 21.5145 160.132 22.0881 159.637 22.6123C159.143 23.1364 158.589 23.5914 157.976 23.9771L160.334 29.5401H155.81L153.956 25.2529L149.194 25.2825V29.5401Z" fill="#116E67"/>
<path d="M92.382 17.2308L95.6381 14.6511C95.6913 14.609 95.7583 14.5859 95.8275 14.5859C95.8968 14.5859 95.9638 14.609 96.017 14.6511L99.2731 17.2308C99.3065 17.2572 99.3333 17.2902 99.3517 17.3276C99.3701 17.3649 99.3797 17.4056 99.3797 17.4469V22.0996C99.3797 22.1742 99.3485 22.2458 99.293 22.2986C99.2375 22.3514 99.1622 22.381 99.0837 22.381H92.5714C92.4929 22.381 92.4176 22.3514 92.3621 22.2986C92.3066 22.2458 92.2754 22.1742 92.2754 22.0996V17.4469C92.2754 17.4056 92.285 17.3649 92.3034 17.3276C92.3218 17.2902 92.3486 17.2572 92.382 17.2308Z" fill="#85F698"/>
<path d="M34.8717 19.4124C34.8717 21.187 33.4331 22.6256 31.6585 22.6256C29.8839 22.6256 28.4453 21.187 28.4453 19.4124C28.4453 17.6378 29.8839 16.1992 31.6585 16.1992C33.4331 16.1992 34.8717 17.6378 34.8717 19.4124Z" fill="#116E67"/>
<path d="M58.6041 19.4124C58.6041 21.187 57.1655 22.6256 55.3909 22.6256C53.6163 22.6256 52.1777 21.187 52.1777 19.4124C52.1777 17.6378 53.6163 16.1992 55.3909 16.1992C57.1655 16.1992 58.6041 17.6378 58.6041 19.4124Z" fill="#116E67"/>
<path d="M101 26.3945L109.053 35.8756" stroke="#116E67" stroke-width="3.90959" stroke-linecap="round"/>
</svg>
