<svg width="123" height="34" viewBox="0 0 123 34" fill="none" xmlns="http://www.w3.org/2000/svg">
<path d="M14.5698 18.1356C12.7843 18.1358 11.015 18.9032 11.201 20.4367L11.6568 23.7697C11.737 24.3564 12.1332 25.294 12.7253 25.294H12.7675L13.2522 31.1127C13.2732 31.3641 13.4555 31.5686 13.7081 31.5686H15.5314C15.7839 31.5686 15.9663 31.3641 15.9872 31.1127L16.472 25.294H16.5142C17.1061 25.294 17.5024 24.3561 17.5826 23.7697L18.0385 20.4367C18.1577 18.9019 16.3555 18.1352 14.5698 18.1356V18.1356Z" fill="#76DD87"/>
<path d="M14.6197 17.5449C15.9414 17.5449 17.0128 16.4735 17.0128 15.1518C17.0128 13.8301 15.9414 12.7587 14.6197 12.7587C13.298 12.7587 12.2266 13.8301 12.2266 15.1518C12.2266 16.4735 13.298 17.5449 14.6197 17.5449Z" fill="#76DD87"/>
<path d="M2.68378 13.0965V31.2953H26.8458V13.0965L14.7648 3.0306L2.68378 13.0965ZM0.702495 11.6033L13.9916 0.529827C14.2087 0.349014 14.4823 0.25 14.7648 0.25C15.0473 0.25 15.3209 0.349014 15.538 0.529827L28.8271 11.6033C28.9632 11.7166 29.0727 11.8585 29.1478 12.0188C29.223 12.1791 29.262 12.354 29.262 12.5311V32.5034C29.262 32.8239 29.1347 33.1311 28.9082 33.3577C28.6816 33.5843 28.3743 33.7116 28.0539 33.7116H1.47568C1.15527 33.7116 0.847986 33.5843 0.621423 33.3577C0.39486 33.1311 0.267578 32.8239 0.267578 32.5034V12.5311C0.267645 12.354 0.306637 12.1791 0.381793 12.0188C0.45695 11.8585 0.566435 11.7166 0.702495 11.6033Z" fill="#116E67"/>
<path d="M46.1966 19.7615H46.2588L48.1678 14.4759L50.2635 9.33595H52.8158V9.68971L46.7153 24.0274H45.7193L39.5566 9.68971V9.33595H42.1296L44.2046 14.3718L46.1966 19.7615Z" fill="#116E67"/>
<path d="M66.4265 23.9026H63.9988V17.41H57.3588V23.9026H54.9519V9.33595H57.3588V15.1834H63.9988V9.33595H66.4265V23.9026Z" fill="#116E67"/>
<path d="M83.9718 16.6193C83.9718 18.8389 83.2801 20.6493 81.8968 22.0505C80.5135 23.4517 78.729 24.1523 76.5433 24.1523C74.4684 24.1523 72.7185 23.4725 71.2936 22.1129C69.8827 20.7395 69.1772 18.9083 69.1772 16.6193C69.1772 14.3302 69.8965 12.5059 71.3351 11.1464C72.7738 9.77295 74.5237 9.08624 76.5848 9.08624C78.646 9.08624 80.389 9.77295 81.8138 11.1464C83.2525 12.5059 83.9718 14.3302 83.9718 16.6193ZM73.0366 12.7695C72.096 13.699 71.6256 14.9822 71.6256 16.6193C71.6256 18.2563 72.096 19.5395 73.0366 20.469C73.9773 21.3985 75.16 21.8632 76.5848 21.8632C78.0097 21.8632 79.1924 21.3985 80.1331 20.469C81.0876 19.5395 81.5648 18.2563 81.5648 16.6193C81.5648 15.01 81.0876 13.7337 80.1331 12.7903C79.1924 11.8331 78.0166 11.3545 76.6056 11.3545C75.1808 11.3545 73.9911 11.8261 73.0366 12.7695Z" fill="#116E67"/>
<path d="M85.8535 19.7615H88.219C88.2467 20.2748 88.4403 20.7118 88.8 21.0725C89.1735 21.4193 89.6023 21.6621 90.0865 21.8008C90.5845 21.9395 91.1171 22.0089 91.6842 22.0089C92.6111 22.0089 93.3995 21.8355 94.0497 21.4887C94.7137 21.1418 95.0457 20.5592 95.0457 19.7407C95.0457 19.38 94.9627 19.0678 94.7967 18.8042C94.6445 18.5268 94.4647 18.3187 94.2572 18.18C94.0635 18.0274 93.773 17.9025 93.3857 17.8054C92.9984 17.6944 92.6802 17.625 92.4312 17.5973C92.1961 17.5557 91.8502 17.5141 91.3937 17.4724C87.8663 17.1672 86.1025 15.8354 86.1025 13.477C86.1025 12.062 86.6282 10.973 87.6795 10.2099C88.7447 9.44694 90.0381 9.06543 91.5597 9.06543C93.0675 9.06543 94.3402 9.41919 95.3777 10.1267C96.429 10.8342 96.9685 11.8886 96.9962 13.2897H94.7137C94.686 12.8042 94.4993 12.4019 94.1535 12.0828C93.8076 11.7498 93.4134 11.5279 92.9707 11.4169C92.5419 11.292 92.0646 11.2296 91.539 11.2296C90.7505 11.2296 90.045 11.41 89.4225 11.7707C88.8 12.1175 88.4888 12.6655 88.4888 13.4146C88.4888 13.7337 88.5579 14.0111 88.6963 14.247C88.8346 14.4828 88.9868 14.6632 89.1528 14.788C89.3188 14.9129 89.5747 15.0308 89.9205 15.1418C90.2802 15.2389 90.5707 15.3083 90.792 15.3499C91.0133 15.3915 91.3522 15.4401 91.8087 15.4955C92.5004 15.5788 93.0814 15.662 93.5517 15.7453C94.022 15.8285 94.52 15.9742 95.0457 16.1823C95.5852 16.3765 96.014 16.6193 96.3322 16.9106C96.6504 17.2019 96.9132 17.5904 97.1207 18.0759C97.342 18.5476 97.4527 19.1094 97.4527 19.7615C97.4527 20.5245 97.2798 21.2043 96.9339 21.8008C96.6019 22.3835 96.1524 22.8413 95.5852 23.1742C95.0319 23.5072 94.4301 23.7569 93.78 23.9234C93.1298 24.0898 92.4451 24.1731 91.7257 24.1731C90.7436 24.2008 89.8167 24.0621 88.9453 23.7569C88.0876 23.4517 87.3613 22.9523 86.7665 22.2586C86.1717 21.565 85.8674 20.7326 85.8535 19.7615Z" fill="#116E67"/>
<path d="M102.86 11.4793H98.6474V9.33595H109.437V11.4793H105.225V23.9026H102.86V11.4793Z" fill="#116E67"/>
<path d="M116.318 15.9325H116.401L118.207 12.4782L120.095 9.33595H122.668V9.68971L117.563 17.9927V23.9026H115.156V17.9927L110.031 9.68971V9.33595H112.625L114.575 12.5822L116.318 15.9325Z" fill="#116E67"/>
</svg>
