<svg width="20" height="20" viewBox="0 0 20 20" fill="none" xmlns="http://www.w3.org/2000/svg">
<circle cx="10" cy="10" r="10" fill="#85F698"/>
<circle cx="10" cy="10" r="10" fill="url(#paint0_linear_42_16)"/>
<mask id="mask0_42_16" style="mask-type:alpha" maskUnits="userSpaceOnUse" x="0" y="0" width="20" height="20">
<circle cx="10" cy="10" r="10" fill="#85F698"/>
<circle cx="10" cy="10" r="10" fill="url(#paint1_linear_42_16)"/>
</mask>
<g mask="url(#mask0_42_16)">
<path d="M2 15.4397C2 14.6133 2.51466 13.9149 3.19999 13.8237C8.34329 13.1406 11.6799 13.2022 16.8119 13.8389C17.0682 13.8712 17.3111 13.9924 17.5109 14.1876C17.7107 14.3828 17.8589 14.6436 17.9372 14.9382C18.0155 15.2328 18.0207 15.5484 17.952 15.8464C17.8834 16.1444 17.7439 16.412 17.5506 16.6165C11.4939 22.9516 8.03262 22.8644 2.42666 16.6229C2.15333 16.3189 2 15.8869 2 15.4405V15.4397Z" fill="white"/>
<path d="M14.3333 7.5026C14.3333 8.60767 13.8943 9.66748 13.1129 10.4489C12.3315 11.2303 11.2717 11.6693 10.1667 11.6693C9.0616 11.6693 8.00179 11.2303 7.22039 10.4489C6.43899 9.66748 6 8.60767 6 7.5026C6 6.39754 6.43899 5.33773 7.22039 4.55633C8.00179 3.77492 9.0616 3.33594 10.1667 3.33594C11.2717 3.33594 12.3315 3.77492 13.1129 4.55633C13.8943 5.33773 14.3333 6.39754 14.3333 7.5026V7.5026Z" fill="white"/>
<circle cx="10" cy="10" r="9.6" stroke="#116E67" stroke-width="0.8"/>
</g>
<defs>
<linearGradient id="paint0_linear_42_16" x1="1.85484" y1="3.91304" x2="22.9437" y2="6.39042" gradientUnits="userSpaceOnUse">
<stop stop-color="#76DD87"/>
<stop offset="1" stop-color="#00A0A0"/>
</linearGradient>
<linearGradient id="paint1_linear_42_16" x1="1.85484" y1="3.91304" x2="22.9437" y2="6.39042" gradientUnits="userSpaceOnUse">
<stop stop-color="#76DD87"/>
<stop offset="1" stop-color="#00A0A0"/>
</linearGradient>
</defs>
</svg>
